<svg width="750" height="575" viewBox="0 0 750 575" fill="none" xmlns="http://www.w3.org/2000/svg">
<g filter="url(#filter0_d_18_766)">
<circle cx="717" cy="518" r="25" fill="#6C63FF"/>
</g>
<path fill-rule="evenodd" clip-rule="evenodd" d="M715.5 528.5C715.5 528.898 715.658 529.279 715.939 529.561C716.221 529.842 716.602 530 717 530C717.398 530 717.779 529.842 718.061 529.561C718.342 529.279 718.5 528.898 718.5 528.5V519.5H727.5C727.898 519.5 728.279 519.342 728.561 519.061C728.842 518.779 729 518.398 729 518C729 517.602 728.842 517.221 728.561 516.939C728.279 516.658 727.898 516.5 727.5 516.5H718.5V507.5C718.5 507.102 718.342 506.721 718.061 506.439C717.779 506.158 717.398 506 717 506C716.602 506 716.221 506.158 715.939 506.439C715.658 506.721 715.5 507.102 715.5 507.5V516.5H706.5C706.102 516.5 705.721 516.658 705.439 516.939C705.158 517.221 705 517.602 705 518C705 518.398 705.158 518.779 705.439 519.061C705.721 519.342 706.102 519.5 706.5 519.5H715.5V528.5Z" fill="#F7F7F7"/>
<path d="M341.26 241V228.12H350.24V229.82H343.44V233.72H349.5V235.4H343.44V239.32H350.24V241H341.26ZM352.256 241V231.52H354.256L354.356 232.52C354.823 232.147 355.336 231.853 355.896 231.64C356.456 231.427 357.056 231.32 357.696 231.32C358.376 231.32 358.903 231.433 359.276 231.66C359.663 231.873 359.956 232.173 360.156 232.56C360.596 232.2 361.103 231.907 361.676 231.68C362.249 231.44 362.936 231.32 363.736 231.32C364.829 231.32 365.636 231.6 366.156 232.16C366.676 232.72 366.936 233.58 366.936 234.74V241H364.796V234.96C364.796 234.227 364.643 233.713 364.336 233.42C364.029 233.127 363.529 232.98 362.836 232.98C362.383 232.98 361.949 233.06 361.536 233.22C361.136 233.38 360.789 233.62 360.496 233.94C360.536 234.087 360.563 234.24 360.576 234.4C360.589 234.56 360.596 234.733 360.596 234.92V241H358.576V234.98C358.576 234.287 358.456 233.78 358.216 233.46C357.976 233.14 357.523 232.98 356.856 232.98C356.389 232.98 355.943 233.093 355.516 233.32C355.103 233.533 354.729 233.793 354.396 234.1V241H352.256ZM369.385 245.32V231.52H371.265L371.385 232.46C371.812 232.073 372.278 231.787 372.785 231.6C373.292 231.413 373.892 231.32 374.585 231.32C375.945 231.32 377.005 231.693 377.765 232.44C378.525 233.173 378.905 234.393 378.905 236.1C378.905 237.807 378.512 239.087 377.725 239.94C376.938 240.78 375.865 241.2 374.505 241.2C373.358 241.2 372.378 240.933 371.565 240.4V245.32H369.385ZM373.945 239.56C375.785 239.56 376.705 238.4 376.705 236.08C376.705 234.96 376.498 234.167 376.085 233.7C375.672 233.22 374.978 232.98 374.005 232.98C373.032 232.98 372.218 233.313 371.565 233.98V238.72C371.872 238.973 372.212 239.18 372.585 239.34C372.972 239.487 373.425 239.56 373.945 239.56ZM384.646 241.2C383.632 241.2 382.872 240.933 382.366 240.4C381.872 239.853 381.626 239.113 381.626 238.18V233.22H380.226V231.52H381.626V229.34L383.786 228.68V231.52H386.306L386.166 233.22H383.786V238.06C383.786 238.607 383.912 238.993 384.166 239.22C384.419 239.433 384.832 239.54 385.406 239.54C385.766 239.54 386.146 239.473 386.546 239.34V240.88C386.026 241.093 385.392 241.2 384.646 241.2ZM389.455 244.52C388.735 244.52 388.121 244.427 387.615 244.24V242.62C387.841 242.7 388.048 242.753 388.235 242.78C388.435 242.807 388.635 242.82 388.835 242.82C389.248 242.82 389.581 242.753 389.835 242.62C390.088 242.487 390.308 242.273 390.495 241.98C390.695 241.7 390.908 241.333 391.135 240.88L386.915 231.52H389.175L392.215 238.56L395.295 231.52H397.535L393.675 240.46C393.341 241.26 392.981 241.96 392.595 242.56C392.221 243.173 391.781 243.653 391.275 244C390.781 244.347 390.175 244.52 389.455 244.52ZM398.868 241V239.3H400.708V241H398.868ZM402.442 241V239.3H404.282V241H402.442ZM406.016 241V239.3H407.856V241H406.016Z" fill="#F7F7F7"/>
<path d="M375.934 198.852C417.422 197.978 450.917 190.771 450.748 182.756C450.578 174.741 416.808 168.952 375.319 169.827C333.831 170.702 300.336 177.908 300.505 185.923C300.675 193.939 334.445 199.727 375.934 198.852Z" fill="#6C63FF" fill-opacity="0.1"/>
<path opacity="0.7" d="M375.934 198.852C417.422 197.978 450.917 190.771 450.748 182.756C450.578 174.741 416.808 168.952 375.319 169.827C333.831 170.702 300.336 177.908 300.505 185.923C300.675 193.939 334.445 199.727 375.934 198.852Z" fill="white" fill-opacity="0.1"/>
<path d="M458.922 135.925C458.922 135.925 482.611 113.612 469.595 83.9844C465.98 75.7518 460.132 68.6964 452.86 63.3915C436.561 51.5204 395.353 28.033 333.349 37.1039C326.688 38.0529 320.316 40.4416 314.676 44.1032C305.576 50.063 295.929 61.0091 300.031 79.7751C301.481 86.3999 301.154 93.3177 298.755 99.6699C296.386 105.966 291.898 113.684 283.546 122.013C283.546 122.013 265.749 139.174 283.064 154.026C286.763 157.167 291.139 159.414 295.85 160.592C317.448 166.104 404.744 184.409 458.922 135.925Z" fill="#6C63FF" fill-opacity="0.1"/>
<path opacity="0.7" d="M458.922 135.925C458.922 135.925 482.611 113.612 469.595 83.9844C465.98 75.7518 460.132 68.6964 452.86 63.3915C436.561 51.5204 395.353 28.033 333.349 37.1039C326.688 38.0529 320.316 40.4416 314.676 44.1032C305.576 50.063 295.929 61.0091 300.031 79.7751C301.481 86.3999 301.154 93.3177 298.755 99.6699C296.386 105.966 291.898 113.684 283.546 122.013C283.546 122.013 265.749 139.174 283.064 154.026C286.763 157.167 291.139 159.414 295.85 160.592C317.448 166.104 404.744 184.409 458.922 135.925Z" fill="white" fill-opacity="0.1"/>
<path d="M335.495 188.279C335.495 188.279 336.45 189.346 336.437 189.741C335.113 190.043 333.767 190.239 332.411 190.33C330.609 190.404 327.888 189.729 327.411 189.51C326.933 189.29 327.071 188.687 327.071 188.687C327.071 188.687 328.549 188.019 329.624 188.024C330.699 188.029 333.688 188.23 335.495 188.279Z" fill="#F1F1F1"/>
<path d="M337.328 189.66C337.328 189.66 336.999 188.697 336.355 188.248C336.355 188.248 338.571 187.874 339.574 188.608C340.578 189.341 338.219 189.578 337.328 189.66Z" fill="#F1F1F1"/>
<path d="M349.839 185.779C349.839 185.779 350.704 184.76 350.656 184.358C349.303 184.018 347.927 183.78 346.538 183.644C344.711 183.509 342.025 184.087 341.563 184.291C341.101 184.495 341.308 185.099 341.308 185.099C341.308 185.099 342.86 185.812 343.937 185.843C345.014 185.874 348.016 185.759 349.839 185.779Z" fill="#F1F1F1"/>
<path d="M351.557 184.467C351.557 184.467 351.301 185.415 350.704 185.838C350.704 185.838 352.973 186.286 353.92 185.583C354.868 184.88 352.468 184.579 351.557 184.467Z" fill="#F1F1F1"/>
<path d="M307.972 187.632V186.358C308.327 186.407 308.667 186.536 308.965 186.735C309.621 187.211 308.843 187.481 307.972 187.632Z" fill="#F1F1F1"/>
<path d="M318.428 185.601C318.428 185.601 319.209 184.508 319.127 184.118C317.751 183.888 316.359 183.758 314.964 183.731C313.134 183.731 310.502 184.538 310.06 184.778C309.619 185.017 309.859 185.603 309.859 185.603C309.859 185.603 311.464 186.19 312.539 186.133C313.614 186.077 316.61 185.728 318.428 185.601Z" fill="#F1F1F1"/>
<path d="M320.039 184.154C320.039 184.154 319.873 185.117 319.298 185.588C319.298 185.588 321.596 185.843 322.487 185.079C323.378 184.314 320.952 184.194 320.039 184.154Z" fill="#F1F1F1"/>
<path d="M365.042 189.102C365.042 189.102 366.063 190.096 366.091 190.49C364.792 190.889 363.464 191.186 362.119 191.38C360.333 191.586 357.56 191.125 357.07 190.931C356.58 190.738 356.669 190.136 356.669 190.136C356.669 190.136 358.094 189.372 359.158 189.285C360.223 189.199 363.235 189.196 365.042 189.102Z" fill="#F1F1F1"/>
<path d="M366.972 190.345C366.972 190.345 366.571 189.408 365.897 189.01C365.897 189.01 368.077 188.47 369.134 189.127C370.191 189.785 367.855 190.198 366.972 190.345Z" fill="#F1F1F1"/>
<path d="M378.464 186.35C378.464 186.35 379.391 185.374 379.365 184.979C378.035 184.558 376.675 184.236 375.296 184.016C373.481 183.761 370.765 184.194 370.293 184.368C369.821 184.541 369.979 185.158 369.979 185.158C369.979 185.158 371.485 185.963 372.56 186.057C373.635 186.151 376.647 186.223 378.464 186.35Z" fill="#F1F1F1"/>
<path d="M380.264 185.142C380.264 185.142 379.963 186.075 379.33 186.46C379.33 186.46 381.571 187.041 382.556 186.404C383.541 185.767 381.168 185.308 380.264 185.142Z" fill="#F1F1F1"/>
<path d="M393.908 188.279C393.908 188.279 394.86 189.346 394.85 189.741C393.525 190.043 392.178 190.24 390.822 190.33C389.02 190.404 386.296 189.729 385.819 189.51C385.341 189.29 385.482 188.687 385.482 188.687C385.482 188.687 386.957 188.019 388.034 188.024C389.112 188.029 392.098 188.23 393.908 188.279Z" fill="#F1F1F1"/>
<path d="M395.738 189.66C395.738 189.66 395.409 188.697 394.766 188.248C394.766 188.248 396.981 187.874 397.987 188.608C398.993 189.341 396.629 189.578 395.738 189.66Z" fill="#F1F1F1"/>
<path d="M407.46 187.466C407.46 187.466 408.241 186.37 408.162 185.981C406.785 185.75 405.392 185.621 403.996 185.593C402.166 185.609 399.536 186.401 399.092 186.64C398.648 186.88 398.893 187.466 398.893 187.466C398.893 187.466 400.496 188.052 401.571 187.996C402.646 187.94 405.63 187.601 407.46 187.466Z" fill="#F1F1F1"/>
<path d="M409.061 186.029C409.061 186.029 408.892 186.992 408.32 187.464C408.32 187.464 410.618 187.718 411.506 186.954C412.394 186.19 409.972 186.067 409.061 186.029Z" fill="#F1F1F1"/>
<path d="M422.684 189.216C422.684 189.216 423.639 190.282 423.626 190.679C422.301 190.979 420.954 191.176 419.598 191.268C417.796 191.342 415.072 190.666 414.598 190.445C414.123 190.223 414.258 189.622 414.258 189.622C414.258 189.622 415.736 188.954 416.811 188.959C417.885 188.964 420.875 189.173 422.684 189.216Z" fill="#F1F1F1"/>
<path d="M424.517 190.597C424.517 190.597 424.188 189.632 423.542 189.186C423.542 189.186 425.758 188.811 426.763 189.545C427.769 190.279 425.405 190.524 424.517 190.597Z" fill="#F1F1F1"/>
<path d="M435.616 186.74V188.46C433.799 188.608 431.3 188.895 430.337 188.941C429.26 188.997 427.657 188.414 427.657 188.414C427.657 188.414 427.402 187.828 427.859 187.588C428.316 187.349 430.922 186.554 432.762 186.541C433.717 186.549 434.67 186.615 435.616 186.74Z" fill="#F1F1F1"/>
<path d="M424.976 184.352C424.999 183.28 424.826 182.213 424.466 181.203C424.287 180.694 418.301 182.956 417.717 183.147C415.741 183.8 414.283 184.944 412.581 186.162C411.774 186.74 410.955 187.326 410.028 187.657C409.101 187.988 407.986 188.057 407.016 188.394C406.046 188.73 405.078 189.471 404.974 190.501C407.036 191.158 409.262 191.658 411.355 191.089C413.377 190.541 415.001 189.074 416.854 188.101C418.142 187.445 419.517 186.976 420.938 186.709C420.938 187.109 420.958 187.512 420.971 187.912C422.023 187.911 423.07 187.761 424.08 187.466C424.214 187.436 424.34 187.377 424.448 187.293C424.549 187.188 424.622 187.06 424.662 186.921C424.957 186.099 425.065 185.221 424.976 184.352Z" fill="#6C63FF"/>
<path d="M380.146 182.584C379.25 182.584 378.308 182.548 377.509 182.959C376.534 183.468 375.978 184.487 375.49 185.473C381.479 186.592 387.667 185.871 393.236 183.407C393.285 183.97 393.211 184.537 393.019 185.068C394.486 185.219 395.962 185.267 397.436 185.211C397.592 185.218 397.749 185.188 397.892 185.124C398.063 185.013 398.195 184.852 398.27 184.663C398.662 183.886 398.933 183.055 399.074 182.197C399.147 181.9 399.13 181.589 399.026 181.302C398.824 180.966 398.496 180.723 398.115 180.627C395.544 179.718 392.769 180.831 390.265 181.435C386.952 182.231 383.554 182.617 380.146 182.584Z" fill="#6C63FF"/>
<path d="M369.494 123.353C366.96 123.282 364.426 123.265 361.892 123.302C361.59 123.27 361.286 123.355 361.045 123.539C360.789 123.807 360.83 124.24 360.935 124.599C361.42 126.268 363.391 128.857 365.389 128.256C367.452 127.639 369.078 125.374 369.494 123.353Z" fill="#F7A48B"/>
<path d="M356.264 120.37L367.034 128.653C367.149 128.742 367.244 128.856 367.311 128.985C367.378 129.115 367.415 129.258 367.421 129.403C367.427 129.549 367.401 129.694 367.345 129.829C367.288 129.963 367.203 130.084 367.095 130.182C366.916 130.345 366.685 130.438 366.443 130.443C366.202 130.449 365.966 130.367 365.78 130.213L355.284 121.504L356.264 120.37Z" fill="#252525"/>
<path d="M370.518 119.982C369.589 120.301 368.307 120.665 367.488 121.208C366.668 121.751 365.933 120.581 365.096 120.331C364.2 120.077 363.409 120.258 362.49 120.39C361.333 120.558 360.468 121.154 359.531 121.86C358.588 122.565 357.511 123.071 356.366 123.348C355.761 125.323 360.585 123.871 361.198 123.759C361.849 123.639 362.324 123.611 362.936 123.899C364.379 124.579 365.014 124.711 366.668 124.559C367.707 125.239 369.022 125.771 370.109 124.64C370.73 123.996 371.896 123.366 372.42 122.699C372.721 122.304 372.751 122.571 372.448 121.832C372.07 120.905 371.353 120.51 370.518 119.982Z" fill="#F9B499"/>
<path d="M360.772 123.578C360.126 124.087 359.214 124.421 358.398 124.78C358.283 124.829 358.186 124.912 358.121 125.019C358.056 125.125 358.026 125.249 358.035 125.373C358.043 125.497 358.091 125.615 358.17 125.711C358.249 125.808 358.356 125.877 358.477 125.909C359.901 126.284 363.128 124.864 362.816 123.348C362.311 123.109 361.2 123.236 360.772 123.578Z" fill="#F9B499"/>
<path d="M359.625 125.55C359.304 126.014 359.209 127.002 359.625 127.433C360.953 128.804 363.26 126.595 364.006 125.601C365.499 123.608 363.148 124.072 361.999 124.602C361.32 124.9 360.537 125.219 359.625 125.55Z" fill="#F9B499"/>
<path d="M360.856 127.257C360.764 130.439 365.875 127.471 365.451 125.417C365.104 123.766 363.621 125.522 363.105 125.914C362.589 126.307 361.122 126.594 360.856 127.257Z" fill="#F9B499"/>
<path d="M362.819 128.075C363.603 130.307 366.778 127.756 366.423 126.036C366.275 125.323 365.864 125.043 365.211 125.585C364.866 125.873 364.721 126.38 364.422 126.712C364.016 127.175 362.834 127.468 362.819 128.075Z" fill="#F9B499"/>
<path d="M355.809 121.85C355.809 121.85 340.103 120.413 334.949 107.811L336.736 104.916C336.736 104.916 348.899 105.66 356.629 120.589L355.809 121.85Z" fill="#6C63FF"/>
<path d="M336.496 108.16C336.496 108.16 345.94 111.34 353.734 120.321C353.736 120.321 341.223 117.86 336.496 108.16Z" fill="#E5E5E5"/>
<g opacity="0.3">
<path d="M341.9 107.118C341.366 106.863 340.81 106.631 340.217 106.414L339.082 108.267C339.661 108.478 340.256 108.705 340.868 108.947L341.9 107.118Z" fill="white"/>
<path d="M342.415 107.375L341.358 109.158C342.782 109.74 344.167 110.412 345.504 111.171L346.053 109.923C344.952 108.924 343.73 108.068 342.415 107.375Z" fill="white"/>
<path d="M346.556 111.811C347.131 112.178 347.685 112.577 348.215 113.006L348.628 112.496C348.082 111.895 347.559 111.35 347.043 110.843L346.556 111.811Z" fill="white"/>
</g>
<path d="M375.595 123.415C374.735 123.866 373.729 124.08 372.871 124.528C372.075 122.747 371.073 121.065 369.887 119.516L372.029 118.26C373.137 119.975 374.49 121.7 375.595 123.415Z" fill="white"/>
<path d="M403.476 135.421C396.389 139.033 388.278 140.118 380.489 138.496C381.357 131.428 380.422 124.278 379.493 117.218C378.62 110.615 377.749 104.014 376.879 97.4148C376.519 94.691 375.373 91.7277 375.164 88.9886C374.955 86.2495 376.019 83.062 378.612 82.1422C380.91 81.3268 383.429 82.6059 385.331 84.1398C391.802 89.3581 395.031 97.5346 397.454 105.479C400.405 115.141 402.112 125.41 403.476 135.421Z" fill="#6C63FF"/>
<path opacity="0.2" d="M403.476 135.421C396.389 139.033 388.278 140.118 380.489 138.496C381.357 131.428 380.422 124.278 379.493 117.218C378.62 110.615 377.749 104.014 376.879 97.4148C376.519 94.691 375.373 91.7277 375.164 88.9886C374.955 86.2495 376.019 83.062 378.612 82.1422C380.91 81.3268 383.429 82.6059 385.331 84.1398C391.802 89.3581 395.031 97.5346 397.454 105.479C400.405 115.141 402.112 125.41 403.476 135.421Z" fill="black"/>
<path d="M399.922 124.332C398.039 132.881 396.906 141.577 396.535 150.321C396.417 153.068 396.376 155.825 396.047 158.554C395.613 162.154 394.687 165.688 393.763 169.182C392.741 173.089 391.712 176.996 390.674 180.902C392.736 181.476 394.836 181.902 396.959 182.176C398.515 182.387 400.09 182.415 401.653 182.261C405.975 181.751 409.852 179.137 414.186 178.757C414.163 171.666 414.141 164.57 413.753 157.489C413.472 152.503 413.016 147.531 412.384 142.57C411.899 138.782 411.302 134.993 410.263 131.316C409.811 129.721 409.257 128.113 408.221 126.809C406.421 124.515 402.725 123.496 399.922 124.332Z" fill="#252525"/>
<path opacity="0.2" d="M399.922 124.332C398.039 132.881 396.906 141.577 396.535 150.321C396.417 153.068 396.376 155.825 396.047 158.554C395.613 162.154 394.687 165.688 393.763 169.182C392.741 173.089 391.712 176.996 390.674 180.902C392.736 181.476 394.836 181.902 396.959 182.176C398.515 182.387 400.09 182.415 401.653 182.261C405.975 181.751 409.852 179.137 414.186 178.757C414.163 171.666 414.141 164.57 413.753 157.489C413.472 152.503 413.016 147.531 412.384 142.57C411.899 138.782 411.302 134.993 410.263 131.316C409.811 129.721 409.257 128.113 408.221 126.809C406.421 124.515 402.725 123.496 399.922 124.332Z" fill="black"/>
<path opacity="0.2" d="M412.841 146.403C412.7 145.123 412.548 143.849 412.384 142.581C411.899 138.792 411.302 135.003 410.263 131.326C409.811 129.731 409.257 128.123 408.221 126.819C406.414 124.525 402.717 123.506 399.914 124.342C399.011 128.449 398.28 132.591 397.722 136.766C401.964 141.075 407.19 144.201 412.841 146.403Z" fill="black"/>
<path d="M429.385 179.86L424.415 182.067C423.491 182.477 422.567 182.887 421.607 183.213C419.289 184.008 416.824 184.282 414.388 184.016C413.523 181.213 412.657 178.41 411.789 175.608C411.169 173.602 410.549 171.595 410.128 169.541C409.591 166.942 409.377 164.287 409.163 161.642L407.47 140.675C412.831 135.523 418.727 131.622 425.709 129.063C426.368 128.809 427.075 128.592 427.751 128.745C429.204 134.929 429.249 141.361 427.881 147.564C427.427 149.603 426.827 151.621 426.559 153.695C426.123 157.074 426.577 160.496 427.034 163.869C427.726 169.039 428.688 174.69 429.385 179.86Z" fill="#252525"/>
<path opacity="0.2" d="M427.641 148.568C427.723 148.235 427.802 147.901 427.876 147.565C429.25 141.362 429.211 134.931 427.764 128.745C427.08 128.592 426.373 128.821 425.722 129.064C418.74 131.612 412.838 135.523 407.483 140.675L407.993 146.981C414.431 147.987 421.068 148.719 427.641 148.568Z" fill="black"/>
<path d="M387.72 109.332C388.371 114.474 387.536 120.332 384.562 121.817C381.589 123.302 378.127 123.855 374.834 124.299C373.532 122.209 372.19 120.316 370.885 118.227C374.372 115.195 379.59 112.545 380.409 108.002C380.994 104.734 380.861 101.378 380.019 98.1665C383.623 103.693 384.662 103.477 387.72 109.332Z" fill="#252525"/>
<path opacity="0.2" d="M387.72 109.332C388.371 114.474 387.536 120.332 384.562 121.817C381.589 123.302 378.127 123.855 374.834 124.299C373.532 122.209 372.19 120.316 370.885 118.227C374.372 115.195 379.59 112.545 380.409 108.002C380.994 104.734 380.861 101.378 380.019 98.1665C383.623 103.693 384.662 103.477 387.72 109.332Z" fill="black"/>
<path d="M399.07 119.87C397.283 121.595 394.768 122.457 392.282 122.398C390.204 116.721 386.625 111.742 383.391 106.631C380.157 101.52 377.18 96.0211 376.542 90.0104C376.381 88.4816 375.194 87.126 375.072 85.5922C374.949 84.0583 375.475 82.374 376.764 81.5154C378.053 80.6567 379.904 80.8707 381.267 81.6759C382.63 82.4811 383.629 83.7652 384.547 85.0545C391.843 95.2975 395.657 107.783 399.07 119.87Z" fill="#252525"/>
<path d="M383.557 100.699C383.276 95.4606 382.932 89.9977 380.297 85.4571C379.72 84.4634 378.977 83.4799 377.903 83.0722C373.193 81.2886 376.019 89.3683 376.703 91.1035C378.158 94.8185 380.513 98.1155 383.557 100.699Z" fill="white"/>
<path d="M374.385 82.6288C373.626 85.0656 373.48 87.6518 373.961 90.1581C375.325 97.1855 377.612 104.682 378.526 111.78C380.632 101.899 379.102 90.6575 374.487 81.6682C374.482 81.9908 374.448 82.3122 374.385 82.6288Z" fill="#6C63FF"/>
<path opacity="0.4" d="M374.385 82.6288C373.626 85.0656 373.48 87.6518 373.961 90.1581C375.325 97.1855 377.612 104.682 378.526 111.78C380.632 101.899 379.102 90.6575 374.487 81.6682C374.482 81.9908 374.448 82.3122 374.385 82.6288Z" fill="black"/>
<path d="M377.438 66.2757C377.438 66.2757 373.053 70.322 370.579 70.0748C368.106 69.8277 369.208 64.8005 369.208 64.8005C369.208 64.8005 374.735 64.3138 377.438 66.2757Z" fill="#6C63FF"/>
<path opacity="0.2" d="M377.438 66.2757C377.438 66.2757 373.053 70.322 370.579 70.0748C368.106 69.8277 369.208 64.8005 369.208 64.8005C369.208 64.8005 374.735 64.3138 377.438 66.2757Z" fill="black"/>
<path d="M369.591 86.7754C374.384 84.0131 375.3 76.6384 371.636 70.3037C367.972 63.9689 361.116 61.073 356.322 63.8353C351.529 66.5977 350.613 73.9724 354.277 80.3071C357.942 86.6418 364.798 89.5378 369.591 86.7754Z" fill="#F9B499"/>
<path d="M360.006 88.5224L359.883 87.758C360.077 88.0211 360.324 88.2407 360.608 88.4026L360.644 87.7401C360.765 87.8643 360.916 87.9557 361.082 88.0056C361.248 88.0556 361.424 88.0624 361.594 88.0255C361.932 87.9463 362.254 87.8092 362.546 87.6204C362.793 87.496 363.013 87.3227 363.192 87.1108C363.278 87.0043 363.329 86.8744 363.34 86.738C363.351 86.6017 363.321 86.4652 363.253 86.3464L364.062 87.0955L363.603 85.7451L364.169 86.3336C364.353 86.5494 364.581 86.7231 364.838 86.8432C364.968 86.8986 365.112 86.9117 365.249 86.8806C365.387 86.8495 365.511 86.7758 365.604 86.67C365.859 86.3107 365.54 85.8317 365.211 85.5412C364.411 84.8501 363.462 84.353 362.437 84.0886C361.413 83.8243 360.342 83.8 359.306 84.0175C358.931 84.0965 357.93 84.3029 357.747 84.6876C357.622 84.9424 357.943 85.689 358.05 85.9616C358.256 86.4674 358.529 86.9438 358.86 87.3783C359.043 87.6025 359.98 88.288 360.006 88.5224Z" fill="#252525"/>
<path d="M356.287 71.1704C356.746 72.2482 357.428 73.3184 358.497 73.8C359.192 74.1108 359.975 74.1414 360.736 74.1414C361.65 74.1414 362.563 74.1083 363.475 74.042C364.751 75.4281 365.846 76.8881 366.556 78.6284C367.25 78.2156 368.044 77.678 368.741 77.2652C368.021 75.7033 367.416 74.0318 366.699 72.4725C368.687 73.9325 371.549 74.2713 373.869 73.4382C372.353 70.2888 370.446 67.3586 367.963 64.9075L356.287 71.1704Z" fill="#252525"/>
<path d="M367.564 73.7185C366.93 72.8604 366.406 71.9255 366.007 70.9361C365.79 70.4035 366.155 69.6901 366.398 69.1678C366.512 68.9018 366.684 68.6647 366.902 68.4738C367.119 68.2829 367.377 68.143 367.656 68.0645C367.923 68.0351 368.192 68.106 368.409 68.2632C369.397 69.2467 369.665 70.7246 369.813 72.1107C369.895 72.6708 369.895 73.2399 369.813 73.8C369.73 74.3658 369.427 74.8764 368.971 75.2218C368.434 74.7888 367.96 74.2827 367.564 73.7185Z" fill="#F7B595"/>
<path d="M370.571 65.7484C370.571 65.7484 375.227 65.5394 377.438 66.2758C377.438 66.2758 375.843 63.2182 368.593 63.3329C361.343 63.4475 370.571 65.7484 370.571 65.7484Z" fill="#6C63FF"/>
<path d="M370.571 65.7483C362.635 66.7497 355.128 72.5897 352.83 80.2388C352.092 79.984 351.513 79.2756 350.911 78.7737C349.098 77.2678 346.535 76.1136 346.3 73.7719C345.923 70.0035 346.87 66.2426 347.807 62.5735C350.104 60.558 352.583 58.1298 355.587 57.5412C359.13 56.8507 362.694 58.3566 365.987 59.8344C367.24 60.3975 368.23 61.5033 369.012 62.6015C369.152 62.8028 370.701 65.7305 370.571 65.7483Z" fill="#6C63FF"/>
<path opacity="0.3" d="M370.571 65.7483C362.635 66.7497 355.128 72.5897 352.83 80.2388C352.092 79.984 351.513 79.2756 350.911 78.7737C349.098 77.2678 346.535 76.1136 346.3 73.7719C345.923 70.0035 346.87 66.2426 347.807 62.5735C350.104 60.558 352.583 58.1298 355.587 57.5412C359.13 56.8507 362.694 58.3566 365.987 59.8344C367.24 60.3975 368.23 61.5033 369.012 62.6015C369.152 62.8028 370.701 65.7305 370.571 65.7483Z" fill="white"/>
<path d="M365.987 59.837C362.694 58.3566 359.13 56.8507 355.587 57.5438C354.022 57.8495 352.603 58.6572 351.276 59.6433C350.528 60.6609 349.869 61.7401 349.305 62.8691C348.044 65.4426 347.401 68.4059 348.006 71.2087C348.692 74.3809 350.842 76.962 353.142 79.3164C354.849 74.6 358.541 70.6532 363.028 68.2199C361.95 64.9978 360.664 61.8487 359.179 58.7923C361.415 59.6416 363.639 60.5054 365.851 61.3836C366.967 61.8295 368.088 62.2881 369.155 62.8385C369.086 62.7162 369.037 62.6321 369.017 62.6041C368.231 61.5059 367.24 60.4001 365.987 59.837Z" fill="#6C63FF"/>
<path d="M359.179 58.7924C360.664 61.8488 361.95 64.9979 363.028 68.2199C365.367 66.9377 367.925 66.1013 370.571 65.7535C370.681 65.7382 369.55 63.58 369.149 62.8437C368.082 62.2933 366.962 61.8245 365.846 61.3888C363.637 60.5072 361.415 59.6417 359.179 58.7924Z" fill="#6C63FF"/>
<path opacity="0.2" d="M358.142 71.8534C356.996 69.4175 355.031 67.4683 352.986 65.7127C352.121 64.9661 351.156 64.2145 350.017 64.1125C349.093 64.031 348.008 64.4259 347.582 65.2489C349.532 66.1994 351.235 67.0886 352.968 68.4696C353.823 69.1525 354.65 69.871 355.559 70.4825C355.985 70.7679 357.979 71.5017 358.142 71.8534Z" fill="black"/>
<path d="M350.911 78.7737L351.641 84.6672C351.641 84.6672 353.499 82.4148 353.923 77.4717C353.923 77.4717 352.021 77.5405 350.911 78.7737Z" fill="#6C63FF"/>
<path d="M364.588 67.5498C362.641 69.4257 360.385 70.9522 357.918 72.0623C355.963 70.1564 353.726 67.8378 351.184 66.8313C350.528 66.5811 349.86 66.3642 349.183 66.1816L346.931 65.542C346.872 64.1079 347.133 62.6786 347.697 61.3582C348.146 60.2931 349.456 59.6281 350.38 58.9351C352.437 57.4063 355.835 57.0674 358.39 57.3578C359.518 58.9911 364.432 66.0618 364.805 67.0835C364.802 66.9842 364.596 67.6594 364.588 67.5498Z" fill="#6C63FF"/>
<path opacity="0.3" d="M364.588 67.5498C362.641 69.4257 360.385 70.9522 357.918 72.0623C355.963 70.1564 353.726 67.8378 351.184 66.8313C350.528 66.5811 349.86 66.3642 349.183 66.1816L346.931 65.542C346.872 64.1079 347.133 62.6786 347.697 61.3582C348.146 60.2931 349.456 59.6281 350.38 58.9351C352.437 57.4063 355.835 57.0674 358.39 57.3578C359.518 58.9911 364.432 66.0618 364.805 67.0835C364.802 66.9842 364.596 67.6594 364.588 67.5498Z" fill="white"/>
<path d="M358.398 57.368C358.027 57.3273 357.632 57.2992 357.239 57.2839C356.57 57.3756 355.908 57.5135 355.258 57.6967C352.756 58.4025 350.408 59.9033 349.078 62.1328C350.986 60.3654 353.335 59.1414 355.878 58.5885C353.274 60.3186 350.584 62.1557 349.006 64.8387C352.07 64.9483 354.421 67.481 356.396 69.8226C356.997 70.5127 357.561 71.2339 358.086 71.9833C360.487 70.8801 362.685 69.3813 364.588 67.5498C364.588 67.6517 364.774 67.0759 364.807 67.0835C364.409 66.0261 359.521 58.9962 358.398 57.368Z" fill="#6C63FF"/>
<path d="M378.426 86.117C376.415 85.5743 374.322 85.3399 372.244 85.1641C372.652 80.3008 373.059 75.4367 373.464 70.5717C374.74 70.4418 375.965 70.4392 377.193 70.8112C378.413 75.6091 378.71 81.1739 378.426 86.117Z" fill="white"/>
<path d="M376.09 76.9136C375.985 79.3623 375.947 81.8924 376.856 84.1652C377.765 86.4381 379.886 88.4051 382.342 88.3949L379.072 73.7796C378.86 72.8369 378.643 71.8737 378.148 71.0431C377.109 69.2926 375.763 69.2442 375.998 71.41C376.168 73.2396 376.199 75.0794 376.09 76.9136Z" fill="#402C35"/>
<path d="M377.451 70.5386C377.86 76.1916 377.899 81.8653 377.568 87.5235C384.925 95.5395 390.482 104.97 394.27 115.162C398.058 125.354 400.512 135.981 402.949 146.573C408.889 147.241 414.102 143.877 418.776 140.157C423.45 136.437 427.84 132.085 433.454 130.032C431.815 122.798 430.179 115.314 427.371 108.455C425.295 103.415 422.84 98.4009 418.98 94.5483C415.475 91.0525 411.008 88.7083 406.615 86.4202C396.953 81.3879 387.102 75.5709 377.451 70.5386Z" fill="#6C63FF"/>
<mask id="mask0_18_766" style="mask-type:luminance" maskUnits="userSpaceOnUse" x="377" y="70" width="52" height="46">
<path style="mix-blend-mode:multiply" d="M427.371 108.455C425.296 103.415 422.84 98.4009 418.981 94.5483C415.476 91.0525 411.009 88.7083 406.615 86.4202C396.966 81.3879 387.116 75.5709 377.464 70.5386C377.745 74.4013 377.85 78.27 377.78 82.1447C378.51 83.3193 379.248 84.4939 379.983 85.6813C381.466 88.0943 383.764 89.8779 386.018 91.613C388.68 93.6642 391.378 95.7357 394.442 97.1091C396.813 98.1741 399.356 98.7984 401.811 99.6571C409.893 102.525 416.838 107.907 421.625 115.011C423.885 113.652 426.084 112.203 428.221 110.662C427.943 109.923 427.66 109.184 427.371 108.455Z" fill="url(#paint0_linear_18_766)"/>
</mask>
<g mask="url(#mask0_18_766)">
<path opacity="0.1" d="M427.371 108.455C425.296 103.415 422.84 98.4009 418.981 94.5483C415.476 91.0525 411.009 88.7083 406.615 86.4202C396.966 81.3879 387.116 75.5709 377.464 70.5386C377.745 74.4013 377.85 78.27 377.78 82.1447C378.51 83.3193 379.248 84.4939 379.983 85.6813C381.466 88.0943 383.764 89.8779 386.018 91.613C388.68 93.6642 391.378 95.7357 394.442 97.1091C396.813 98.1741 399.356 98.7984 401.811 99.6571C409.893 102.525 416.838 107.907 421.625 115.011C423.885 113.652 426.084 112.203 428.221 110.662C427.943 109.923 427.66 109.184 427.371 108.455Z" fill="white"/>
</g>
<path d="M388.348 100.934C389.017 100.399 389.073 99.4685 388.729 98.7398C388.384 98.0111 387.723 97.4352 387.074 96.8798C386.426 96.3243 385.762 95.7383 385.43 95.0121C385.099 94.2859 385.175 93.3508 385.847 92.8259C385.889 92.7917 385.944 92.7748 385.999 92.7786C386.053 92.7824 386.105 92.8065 386.143 92.8463C385.923 93.4884 385.704 94.1891 386.007 94.8057C386.357 95.5115 387.261 95.8555 387.998 96.2886C389.665 97.2671 390.699 99.1857 389.969 100.801C389.902 100.989 389.787 101.156 389.637 101.287C389.486 101.418 389.304 101.509 389.109 101.55C388.685 101.599 388.034 101.186 388.348 100.934Z" fill="#252525"/>
<path d="M384.764 102.404C385.825 103.95 387.366 105.105 389.15 105.691C389.632 105.873 390.151 105.938 390.663 105.879C390.918 105.846 391.16 105.746 391.364 105.589C391.568 105.432 391.727 105.225 391.825 104.987C392.032 104.371 391.679 103.713 391.33 103.168C390.639 102.083 389.916 101.017 389.162 99.9705L384.764 102.404Z" fill="#6C63FF"/>
<path opacity="0.3" d="M384.764 102.404C385.825 103.95 387.366 105.105 389.15 105.691C389.632 105.873 390.151 105.938 390.663 105.879C390.918 105.846 391.16 105.746 391.364 105.589C391.568 105.432 391.727 105.225 391.825 104.987C392.032 104.371 391.679 103.713 391.33 103.168C390.639 102.083 389.916 101.017 389.162 99.9705L384.764 102.404Z" fill="white"/>
<path d="M399.1 100.934C398.589 101.352 396.833 102.101 396.233 101.833C395.761 101.624 395.682 100.903 395.169 100.707C394.188 100.337 392.999 101.15 392.131 101.471C391.35 101.757 389.162 101.374 389.305 102.371C389.486 103.645 392.2 103.841 393.203 103.8C392.001 104.294 390.88 104.921 389.683 105.354C388.2 104.756 387.455 103.933 385.762 104.142C385.492 105.235 387.508 105.744 388.118 106.417C388.478 106.814 388.573 107.253 389.124 107.403C389.561 107.52 390.717 107.403 391.166 107.235C391.421 108.162 392.172 108.132 392.968 108.134C393.374 108.134 393.555 108.682 393.949 108.789C394.268 108.878 394.671 108.682 395.016 108.705C396.915 108.838 397.941 106.814 399.028 106.172C399.771 105.732 400.943 104.898 401.732 104.715C401.441 103.731 399.159 101.127 399.1 100.934Z" fill="#F9B499"/>
<g opacity="0.3">
<path d="M389.162 99.9705L384.764 102.404C384.964 102.695 385.181 102.973 385.415 103.237C386.848 102.398 388.311 101.614 389.803 100.885C389.591 100.579 389.379 100.271 389.162 99.9705Z" fill="white"/>
</g>
<path d="M403.731 104.656C402.911 105.026 401.977 105.505 401.158 105.872C400.226 104.108 399.258 102.506 398.327 100.743L401.002 99.6902C402.028 101.27 402.705 103.082 403.731 104.656Z" fill="white"/>
<path d="M417.415 102.447C413.2 104.853 408.417 106.09 403.562 106.03C402.112 103.927 400.443 101.973 399.271 99.7054C401.704 98.0034 404.033 96.1579 406.245 94.1788C410.794 95.3407 415.297 98.2658 417.415 102.447Z" fill="#252525"/>
<path d="M430.993 106.634L426.322 95.5956C425.066 92.6221 423.736 89.5492 421.324 87.4013C418.26 84.68 413.982 83.8901 410.347 81.9817C404.841 79.0846 400.964 73.665 395.368 70.9438C389.461 68.0722 382.679 68.6633 376.136 69.257C378.663 74.0829 376.478 80.2338 378.551 85.2711C379.955 88.6778 383.161 91.0831 386.61 92.4055C390.058 93.7279 393.783 94.0821 397.451 94.4898C401.119 94.8975 404.854 95.3765 408.211 96.8875C414.812 99.8482 419.057 106.267 422.939 112.361C425.839 111.042 428.933 109.034 430.993 106.634Z" fill="#6C63FF"/>
<path opacity="0.4" d="M430.993 106.634L426.322 95.5956C425.066 92.6221 423.736 89.5492 421.324 87.4013C418.26 84.68 413.982 83.8901 410.347 81.9817C404.841 79.0846 400.964 73.665 395.368 70.9438C389.461 68.0722 382.679 68.6633 376.136 69.257C378.663 74.0829 376.478 80.2338 378.551 85.2711C379.955 88.6778 383.161 91.0831 386.61 92.4055C390.058 93.7279 393.783 94.0821 397.451 94.4898C401.119 94.8975 404.854 95.3765 408.211 96.8875C414.812 99.8482 419.057 106.267 422.939 112.361C425.839 111.042 428.933 109.034 430.993 106.634Z" fill="black"/>
<g opacity="0.2">
<path d="M383.429 86.5655C385.403 85.6339 387.257 84.4678 388.951 83.0926C387.562 81.9154 386.824 80.1649 386.143 78.4807L382.176 68.7983C380.17 68.8799 378.15 69.0531 376.154 69.2417C378.681 74.0676 376.496 80.2185 378.569 85.2558C379.973 88.6625 383.179 91.0678 386.628 92.3902C388.818 93.2234 391.121 93.6642 393.451 93.998C389.724 92.0717 386.273 89.7479 383.429 86.5655Z" fill="black"/>
</g>
<path d="M375.587 68.5333C375.695 72.8445 375.575 78.3201 376.825 82.4479C378.076 86.5756 380.524 89.4039 384.376 91.3659C382.937 89.7657 382.293 87.4369 382.237 85.2889C383.738 85.057 385.277 84.2162 386.431 83.2327C384.389 78.4501 382.602 73.3465 381.596 68.2479L375.587 68.5333Z" fill="#6C63FF"/>
<path opacity="0.3" d="M375.587 68.5333C375.695 72.8445 375.575 78.3201 376.825 82.4479C378.076 86.5756 380.524 89.4039 384.376 91.3659C382.937 89.7657 382.293 87.4369 382.237 85.2889C383.738 85.057 385.277 84.2162 386.431 83.2327C384.389 78.4501 382.602 73.3465 381.596 68.2479L375.587 68.5333Z" fill="white"/>
<path opacity="0.2" d="M391.506 89.6511C396.08 90.362 400.67 88.8867 405.232 88.1045C409.793 87.3222 415.006 87.3961 418.391 90.5454C415.072 89.7352 411.128 88.9198 407.708 89.1517C406.362 89.2434 405.032 89.4982 403.7 89.7148C399.588 90.3875 395.414 91.0958 391.506 89.6511Z" fill="black"/>
<path opacity="0.2" d="M413.865 85.6253C411.879 85.0894 409.796 85.0145 407.777 85.4062C404.369 86.0712 401.255 88.0485 397.791 88.237C402.324 87.3758 407.2 86.7235 411.736 85.8623C412.486 85.7196 413.155 85.3374 413.865 85.6253Z" fill="black"/>
<path opacity="0.2" d="M422.069 104.766C419.942 101.046 417.028 97.8327 413.53 95.351C415.572 96.1764 417.401 97.452 418.88 99.0824C420.358 100.713 421.449 102.656 422.069 104.766Z" fill="black"/>
<mask id="mask1_18_766" style="mask-type:luminance" maskUnits="userSpaceOnUse" x="308" y="108" width="62" height="77">
<path style="mix-blend-mode:multiply" d="M336.498 108.16L308.521 184.115H369.642L353.736 120.321L336.498 108.16Z" fill="url(#paint1_linear_18_766)"/>
</mask>
<g mask="url(#mask1_18_766)">
<path opacity="0.5" d="M336.498 108.16L308.521 184.115H369.642L353.736 120.321L336.498 108.16Z" fill="#E5E5E5"/>
</g>
<path d="M362.5 124.388C361.599 125.107 360.564 125.64 359.455 125.955" stroke="#F7A48B" stroke-miterlimit="10"/>
<path d="M364.463 124.826C363.479 126.031 362.283 127.045 360.933 127.82" stroke="#F7A48B" stroke-miterlimit="10"/>
<path d="M362.985 128.442C362.985 128.442 364.795 127.4 365.443 125.417" stroke="#F7A48B" stroke-miterlimit="10"/>
<defs>
<filter id="filter0_d_18_766" x="688" y="489" width="58" height="58" filterUnits="userSpaceOnUse" color-interpolation-filters="sRGB">
<feFlood flood-opacity="0" result="BackgroundImageFix"/>
<feColorMatrix in="SourceAlpha" type="matrix" values="0 0 0 0 0 0 0 0 0 0 0 0 0 0 0 0 0 0 127 0" result="hardAlpha"/>
<feOffset/>
<feGaussianBlur stdDeviation="2"/>
<feComposite in2="hardAlpha" operator="out"/>
<feColorMatrix type="matrix" values="0 0 0 0 0.423529 0 0 0 0 0.388235 0 0 0 0 1 0 0 0 1 0"/>
<feBlend mode="normal" in2="BackgroundImageFix" result="effect1_dropShadow_18_766"/>
<feBlend mode="normal" in="SourceGraphic" in2="effect1_dropShadow_18_766" result="shape"/>
</filter>
<linearGradient id="paint0_linear_18_766" x1="402.858" y1="95.8376" x2="408.246" y2="118.649" gradientUnits="userSpaceOnUse">
<stop stop-color="white"/>
<stop offset="1"/>
</linearGradient>
<linearGradient id="paint1_linear_18_766" x1="355.459" y1="118.074" x2="346.279" y2="155.234" gradientUnits="userSpaceOnUse">
<stop stop-color="white"/>
<stop offset="1"/>
</linearGradient>
</defs>
</svg>
